<?xml version="1.0" encoding="UTF-8"?>
<svg width="263px" height="200px" viewBox="0 0 263 200" version="1.1" xmlns="http://www.w3.org/2000/svg" xmlns:xlink="http://www.w3.org/1999/xlink">
    <title>logo__04</title>
    <defs>
        <linearGradient x1="327.850105%" y1="-102.166731%" x2="-46.917822%" y2="117.443772%" id="linearGradient-1">
            <stop stop-color="#D51BFF" offset="0%"></stop>
            <stop stop-color="#00D4FF" offset="100%"></stop>
        </linearGradient>
        <linearGradient x1="134.56001%" y1="-34.5578734%" x2="-35.1504625%" y2="113.254569%" id="linearGradient-2">
            <stop stop-color="#D51BFF" offset="0%"></stop>
            <stop stop-color="#00D4FF" offset="100%"></stop>
        </linearGradient>
        <linearGradient x1="93.8662201%" y1="0.886100183%" x2="-75.8442558%" y2="148.698541%" id="linearGradient-3">
            <stop stop-color="#D51BFF" offset="0%"></stop>
            <stop stop-color="#00D4FF" offset="100%"></stop>
        </linearGradient>
        <linearGradient x1="40.3132438%" y1="95.9217099%" x2="70.3954247%" y2="5.97821636%" id="linearGradient-4">
            <stop stop-color="#D51BFF" offset="0%"></stop>
            <stop stop-color="#00D4FF" offset="100%"></stop>
        </linearGradient>
        <linearGradient x1="28.126226%" y1="115.422193%" x2="58.1866196%" y2="25.5007914%" id="linearGradient-5">
            <stop stop-color="#D51BFF" offset="0%"></stop>
            <stop stop-color="#00D4FF" offset="100%"></stop>
        </linearGradient>
        <linearGradient x1="-59.3920242%" y1="193.063343%" x2="127.904142%" y2="-36.8554008%" id="linearGradient-6">
            <stop stop-color="#D51BFF" offset="0%"></stop>
            <stop stop-color="#00D4FF" offset="100%"></stop>
        </linearGradient>
        <linearGradient x1="-62.0416091%" y1="178.684191%" x2="127.305954%" y2="-50.3696371%" id="linearGradient-7">
            <stop stop-color="#D51BFF" offset="0%"></stop>
            <stop stop-color="#00D4FF" offset="100%"></stop>
        </linearGradient>
        <linearGradient x1="-23.3636709%" y1="228.839602%" x2="61.5176798%" y2="-0.243342835%" id="linearGradient-8">
            <stop stop-color="#D51BFF" offset="0%"></stop>
            <stop stop-color="#00D4FF" offset="100%"></stop>
        </linearGradient>
        <linearGradient x1="-36.052944%" y1="132.875036%" x2="145.363829%" y2="-58.8903518%" id="linearGradient-9">
            <stop stop-color="#D51BFF" offset="0%"></stop>
            <stop stop-color="#00D4FF" offset="100%"></stop>
        </linearGradient>
        <linearGradient x1="-81.1634594%" y1="198.079036%" x2="104.633838%" y2="-1.04614246%" id="linearGradient-10">
            <stop stop-color="#D51BFF" offset="0%"></stop>
            <stop stop-color="#00D4FF" offset="100%"></stop>
        </linearGradient>
        <linearGradient x1="24.8872472%" y1="137.686317%" x2="105.794658%" y2="-83.5369948%" id="linearGradient-11">
            <stop stop-color="#D51BFF" offset="0%"></stop>
            <stop stop-color="#00D4FF" offset="100%"></stop>
        </linearGradient>
    </defs>
    <g id="Page-1" stroke="none" stroke-width="1" fill="none" fill-rule="evenodd">
        <g id="SplashScreen" transform="translate(-552.000000, -412.000000)" fill-rule="nonzero">
            <g id="logo__04" transform="translate(552.000000, 412.000000)">
                <path d="M23.4402676,178.457602 C21.2613326,183.226601 16.0535264,185.832591 10.9302507,184.717622 C5.80697498,183.602653 2.15314621,179.068123 2.15314621,173.824927 C2.15314621,168.58173 5.80697498,164.047201 10.9302507,162.932232 C16.0535264,161.817263 21.2613326,164.423252 23.4402676,169.192251 L25.7831038,169.192251 C23.5405757,163.153336 17.2946332,159.58771 10.954317,160.72693 C4.61400079,161.86615 0,167.383077 0,173.824927 C0,180.266777 4.61400079,185.783704 10.954317,186.922924 C17.2946332,188.062144 23.5405757,184.496518 25.7831038,178.457602 L23.4402676,178.457602 Z" id="Path" fill="#FFFFFF"></path>
                <path d="M42.8408524,160.570174 C36.4710851,160.567256 30.9924537,165.078486 29.7731066,171.330457 C28.5537595,177.582427 31.9356642,183.821764 37.8396961,186.212653 C43.743728,188.603542 50.5140937,186.475455 53.9885132,181.136696 L53.9885132,187.222222 L56.1486009,187.222222 L56.1486009,173.874269 C56.1465827,166.52603 50.1890918,160.570174 42.8408524,160.570174 L42.8408524,160.570174 Z M42.8408524,185.02193 C36.6841693,185.02193 31.6931915,180.030952 31.6931915,173.874269 C31.6931915,167.717586 36.6841693,162.726608 42.8408524,162.726608 C48.9975354,162.726608 53.9885132,167.717586 53.9885132,173.874269 L53.9885132,173.874269 C53.9824688,180.028447 48.99503,185.015885 42.8408524,185.02193 L42.8408524,185.02193 Z" id="Shape" fill="#FFFFFF"></path>
                <path d="M184.730472,160.402043 C178.360248,160.397378 172.880119,164.907738 171.65954,171.159935 C170.43896,177.412131 173.820295,183.652463 179.724532,186.044065 C185.628769,188.435667 192.399808,186.30771 195.874478,180.968567 L195.874478,187.054094 L198.034566,187.054094 L198.034566,173.70614 C198.034566,166.358492 192.07812,160.402043 184.730472,160.402043 L184.730472,160.402043 Z M184.730472,184.853802 C180.221332,184.85528 176.155369,182.140177 174.428771,177.974699 C172.702173,173.809221 173.655017,169.013813 176.842938,165.824847 C180.030859,162.63588 184.825954,161.681464 188.991998,163.406695 C193.158042,165.131927 195.874478,169.197 195.874478,173.70614 C195.868437,179.858893 190.883223,184.845743 184.730472,184.853802 L184.730472,184.853802 Z" id="Shape" fill="url(#linearGradient-1)"></path>
                <path d="M216.963659,160.402047 C209.61542,160.402047 203.657929,166.357901 203.655911,173.70614 L203.655911,200 L205.815999,200 L205.815999,180.968567 C209.291244,186.302684 216.058345,188.427234 221.958785,186.03664 C227.859225,183.646046 231.239141,177.410379 230.021507,171.161579 C228.803873,164.912779 223.329987,160.402047 216.963659,160.402047 L216.963659,160.402047 Z M216.963659,184.853802 C212.454519,184.85528 208.388556,182.140177 206.661958,177.974699 C204.93536,173.809221 205.888205,169.013813 209.076126,165.824847 C212.264046,162.63588 217.059141,161.681464 221.225185,163.406695 C225.391229,165.131927 228.107665,169.197 228.107665,173.70614 C228.101625,179.858893 223.11641,184.845743 216.963659,184.853802 L216.963659,184.853802 Z" id="Shape" fill="url(#linearGradient-2)"></path>
                <path d="M249.152987,160.402046 C241.805339,160.402046 235.848893,166.358492 235.848893,173.70614 L235.848893,200 L238.008981,200 L238.008981,180.968567 C241.484477,186.303068 248.252251,188.427489 254.152897,186.036182 C260.053543,183.644876 263.432889,177.408214 262.214023,171.159187 C260.995157,164.910161 255.519773,160.400604 249.152987,160.402046 L249.152987,160.402046 Z M249.152987,184.853801 C242.996304,184.853801 238.005326,179.862823 238.005326,173.70614 C238.005326,167.549457 242.996304,162.55848 249.152987,162.55848 C255.30967,162.55848 260.300648,167.549457 260.300648,173.70614 C260.294603,179.860318 255.307165,184.847757 249.152987,184.853801 L249.152987,184.853801 Z" id="Shape" fill="url(#linearGradient-3)"></path>
                <polygon id="Rectangle" fill="#FFFFFF" transform="translate(105.211101, 173.918129) rotate(90.000000) translate(-105.211101, -173.918129) " points="92.4004284 172.838085 118.021773 172.838085 118.021773 174.998173 92.4004284 174.998173"></polygon>
                <polygon id="Rectangle" fill="#FFFFFF" transform="translate(105.211101, 154.671053) rotate(90.000000) translate(-105.211101, -154.671053) " points="103.599259 153.591009 106.822943 153.591009 106.822943 155.751096 103.599259 155.751096"></polygon>
                <path d="M122.563075,160.478801 C119.183215,160.518943 116.01807,162.142789 114.014098,164.864766 L114.014098,161.092836 L111.843045,161.092836 L111.843045,186.699561 L114.036028,186.699561 L114.036028,171.509503 C114.036028,166.820175 117.672724,162.810673 122.362051,162.642544 C124.706707,162.559283 126.984638,163.431851 128.673648,165.06022 C130.362659,166.688589 131.317898,168.933108 131.320385,171.27924 L131.320385,186.699561 L133.480571,186.699561 L133.480571,171.531433 C133.506057,165.511696 128.579156,160.402047 122.563075,160.478801 Z" id="Path" fill="#FFFFFF"></path>
                <path d="M152.44977,160.577485 C145.09203,160.577485 139.127402,166.542113 139.127402,173.899854 C139.127402,174.596191 139.181022,175.291495 139.288221,175.979532 C140.149731,181.425177 144.276597,185.777541 149.668755,186.927274 C155.060913,188.077007 160.604183,185.78654 163.612051,181.165936 L163.612051,186.282895 C163.616002,191.482117 160.003756,195.984564 154.92733,197.107877 C149.850905,198.23119 144.676301,195.673099 142.48632,190.957602 L140.139829,190.957602 C142.08598,196.112506 147.020141,199.524209 152.53018,199.524854 L152.53018,199.524854 C156.042166,199.524854 159.41031,198.129723 161.893659,195.646374 C164.377008,193.163025 165.772139,189.794881 165.772139,186.282895 L165.772139,173.899854 C165.772139,166.542113 159.807511,160.577485 152.44977,160.577485 L152.44977,160.577485 Z M152.44977,185.065789 C147.115751,185.063701 142.525515,181.295117 141.484858,176.063596 C141.345612,175.351955 141.274627,174.628644 141.27287,173.903509 L141.27287,173.903509 C141.383012,167.816476 146.348949,162.939583 152.436978,162.939583 C158.525007,162.939583 163.490944,167.816476 163.601086,173.903509 L163.601086,173.903509 C163.597054,180.066595 158.601892,185.061757 152.438806,185.065789 L152.44977,185.065789 Z" id="Shape" fill="#FFFFFF"></path>
                <path d="M94.1529869,184.554094 C91.443697,184.550068 89.2483868,182.354758 89.2443611,179.645468 L89.2443611,163.252924 L98.2684839,163.252924 L98.2684839,161.092836 L89.2443611,161.092836 L89.2443611,153.442982 L87.0842734,153.442982 L87.0842734,179.645468 C87.0842734,183.54941 90.2490442,186.714181 94.1529869,186.714181 L98.630326,186.714181 L98.630326,184.554094 L94.1529869,184.554094 Z" id="Path" fill="#FFFFFF"></path>
                <path d="M71.4812032,187.024854 C65.2129284,186.92617 61.7845658,183.037281 61.634712,179.243421 L61.634712,179.155702 L63.9556184,179.192251 L63.9556184,179.265351 C64.1274021,181.962719 66.9380746,184.864766 71.7955307,184.94152 C75.3554722,184.996345 79.1785717,183.574561 79.2443611,179.42617 C79.2991857,175.873538 75.6624898,175.153509 71.8138056,174.393275 C67.2048874,173.479532 62.4461155,172.53655 62.5301798,166.970029 C62.5923143,163.029971 66.2874898,160.438596 71.7333962,160.522661 C74.3942149,160.562865 76.6274021,161.319444 78.1917296,162.715643 C79.6190148,163.980333 80.4437351,165.790468 80.4614664,167.697368 L80.4614664,167.763158 L78.1442149,167.763158 L78.1442149,167.686404 C78.005326,164.682018 75.4797412,162.704678 71.7114664,162.646199 C67.4717003,162.580409 64.9132208,164.258041 64.8693611,167.127193 C64.8108816,170.906433 68.7070804,171.706871 72.4717003,172.47807 C76.9782793,173.402778 81.638367,174.36038 81.5543027,179.788012 C81.506788,183.18348 78.8276945,187.134503 71.4812032,187.024854 Z" id="Path" fill="#FFFFFF"></path>
                <path d="M72.9687763,66.9444444 C72.9687763,36.3048246 96.7443611,11.1111111 126.828425,8.84868421 L126.828425,0 C91.8174605,2.27339181 64.134712,31.374269 64.134712,66.9444444 C64.134712,102.51462 91.8174605,131.637427 126.813806,133.892544 L126.813806,125.04386 C96.7443611,122.781433 72.9687763,97.5877193 72.9687763,66.9444444 Z" id="Path" fill="url(#linearGradient-4)"></path>
                <path d="M198.323308,66.9444444 C198.323308,31.374269 170.64056,2.27339181 135.644215,0 L135.644215,8.84868421 C165.717314,11.1111111 189.492899,36.3048246 189.492899,66.9627193 C189.492899,97.620614 165.717314,122.796053 135.644215,125.076754 L135.644215,133.925439 C158.103546,132.449425 178.326085,119.809137 189.492899,100.266813 L189.492899,133.925439 L198.323308,133.925439 L198.323308,67.5292398 L198.323308,67.5292398 C198.319654,67.3355263 198.323308,67.1418129 198.323308,66.9444444 Z" id="Path" fill="url(#linearGradient-5)"></path>
                <path d="M142.5448,84.4663743 C139.377158,85.7699805 136.135199,86.916423 132.818923,87.9057018 C135.011905,89.2434211 137.245092,90.4946394 139.518484,91.6593567 C140.856203,92.3464912 142.204887,92.9934211 143.564537,93.6147661 C150.369234,96.7220434 157.497276,99.0657778 164.818192,100.60307 C175.350498,90.0192338 180.336236,75.1242058 178.297724,60.3326023 C173.874274,64.8559649 169.06028,68.9801484 163.911759,72.6571637 C162.693435,73.5319201 161.455618,74.3774366 160.198308,75.1937135 C156.349023,77.7026185 152.340828,79.9588306 148.199039,81.9480994 C146.342314,82.8435673 144.452694,83.6988304 142.5448,84.4663743 Z" id="Path" fill="url(#linearGradient-6)"></path>
                <path d="M119.37594,48.1176901 C122.492412,46.8993665 125.667363,45.8174951 128.900794,44.872076 C126.722431,43.5173002 124.503864,42.247807 122.245092,41.0635965 C120.914683,40.369152 119.574527,39.7039474 118.224624,39.0679825 C111.899126,36.112112 105.285031,33.818001 98.4877822,32.2222222 C90.6436566,39.5567045 85.530067,49.3430348 83.9885132,59.9707602 C83.4261925,63.7799046 83.3218929,67.6426694 83.6778407,71.4766082 C87.9037559,67.2944823 92.4685576,63.4692909 97.3255015,60.0402047 C98.5572266,59.1739766 99.7999167,58.3442982 101.057227,57.5328947 C105.154426,54.8961309 109.428713,52.5452728 113.849624,50.497076 C115.660053,49.6539961 117.502158,48.8608674 119.37594,48.1176901 Z" id="Path" fill="url(#linearGradient-7)"></path>
                <path d="M152.292607,64.8501462 C151.713892,68.6162404 150.933038,72.3484829 149.953425,76.0307018 C152.570385,74.6442495 155.128864,73.1371832 157.628864,71.5095029 C158.886174,70.6932261 160.123991,69.8513645 161.342314,68.9839181 C166.600043,65.2209823 171.494617,60.9749393 175.962197,56.3011696 C176.389829,55.8516082 176.806496,55.3983918 177.223162,54.9488304 C176.448568,51.9616581 175.382284,49.0578392 174.039683,46.2792398 C173.226094,44.6001562 172.315692,42.9697318 171.313075,41.3961988 C170.69173,40.42154 170.03749,39.4700292 169.350355,38.5416667 C164.508241,31.9866519 158.056254,26.7923301 150.61863,23.4612573 C151.974479,29.1615644 152.863146,34.9629603 153.275794,40.8077485 C153.378133,42.2941033 153.450014,43.7902047 153.491437,45.2960526 C153.491437,45.5409357 153.509712,45.7894737 153.517022,46.0270468 C153.612133,50.3420893 153.449807,54.6589638 153.030911,58.9546784 C152.840852,60.9393275 152.595969,62.9057018 152.292607,64.8501462 Z" id="Path" fill="url(#linearGradient-8)"></path>
                <path d="M160.68442,104.269006 C154.11723,102.679788 147.71831,100.461953 141.576232,97.6461988 C140.21171,97.0248538 138.860589,96.3730507 137.52287,95.6907895 C133.872207,93.8269764 130.333088,91.7523201 126.923455,89.4773392 C125.242168,88.3613548 123.590121,87.1917641 121.967314,85.9685673 C118.976353,83.7166609 116.103393,81.3121583 113.359858,78.7646199 C113.269702,80.9576023 113.246554,83.1591131 113.290414,85.369152 C113.290414,86.005117 113.334273,86.6447368 113.356203,87.2770468 C113.414683,88.7792398 113.513367,90.2741228 113.633981,91.7690058 C114.223189,98.8307486 115.542364,105.812456 117.570385,112.602339 C119.718268,113.235824 121.908155,113.717037 124.123747,114.042398 C124.452694,114.089912 124.781642,114.137427 125.110589,114.177632 C126.929209,114.410524 128.759715,114.538659 130.593045,114.561404 C140.98819,114.686224 151.135293,111.385205 159.467314,105.168129 C159.898601,104.897661 160.293338,104.579678 160.68442,104.269006 Z" id="Path" fill="url(#linearGradient-9)"></path>
                <path d="M120.154449,35.0146199 C121.506788,35.6505848 122.851817,36.3157895 124.174917,37.0102339 C127.836096,38.9128049 131.381519,41.030295 134.792607,43.3516082 C136.466583,44.4895224 138.112539,45.6773879 139.730472,46.9152047 C142.888585,49.328001 145.909835,51.9148547 148.78018,54.6637427 C148.806287,54.6849868 148.830725,54.7082032 148.853279,54.7331871 C149.025063,51.8859649 149.087197,49.0241228 149.021408,46.1403509 C149.021408,45.9649123 149.021408,45.7748538 149.021408,45.6140351 C148.977548,44.1118421 148.908104,42.6169591 148.80211,41.125731 C148.344973,34.4981148 147.243279,27.9307932 145.512636,21.5168129 C143.085735,20.753453 140.602399,20.1827257 138.085735,19.8099415 C137.201232,19.6783626 136.320385,19.5833333 135.435882,19.502924 C133.613802,19.330243 131.783258,19.2631231 129.953425,19.3019006 L129.905911,19.3019006 C120.10231,19.5314757 110.612432,22.8024821 102.749478,28.6622807 C108.726189,30.2652386 114.550296,32.3908788 120.154449,35.0146199 L120.154449,35.0146199 Z" id="Path" fill="url(#linearGradient-10)"></path>
                <path d="M109.741437,68.6842105 C110.297968,64.5174997 111.101033,60.3874473 112.146408,56.3157895 C109.237051,57.8070175 106.399576,59.4371345 103.633981,61.2061404 C102.369361,62.0138889 101.126671,62.8472222 99.8949459,63.7134503 C94.4378292,67.5622677 89.365511,71.9295533 84.7487471,76.754386 L84.514829,77.002924 C85.2535103,80.428797 86.3740606,83.7610243 87.8554722,86.9371345 C88.6275838,88.6013589 89.4952594,90.2195555 90.4541565,91.7836257 C91.1851506,92.9861111 91.9965541,94.1703216 92.8481623,95.3252924 C97.8693634,102.117929 104.615495,107.44442 112.387636,110.752924 C110.768389,104.658614 109.690855,98.4331335 109.167607,92.1491228 C109.043338,90.662768 108.948308,89.1691033 108.882519,87.6681287 C108.853279,86.9371345 108.824039,86.2061404 108.80942,85.4751462 C108.727717,81.8479029 108.827745,78.2188438 109.109127,74.6016082 C109.284566,72.6133041 109.481934,70.6469298 109.741437,68.6842105 Z" id="Path" fill="url(#linearGradient-11)"></path>
                <circle id="Oval" fill="#E30613" cx="192.588659" cy="5.73464912" r="5.73464912"></circle>
            </g>
        </g>
    </g>
</svg>